<?xml version="1.0" encoding="UTF-8"?><svg id="Layer_1" xmlns="http://www.w3.org/2000/svg" viewBox="0 0 35.04 35.04"><defs><style>.cls-1{fill:#2c1f14;}</style></defs><path class="cls-1" d="M28.89,32.48c-.02,1.97-2.04,1.39-3.52,1.39-1.41,0-2.85.05-4.26,0v-6.29c0-1.04.45-3.54-.86-3.85-.64-.15-2.42-.06-3.17-.06-.71,0-2.09-.09-2.72.03-1.39.28-.95,2.31-.95,3.32v4.48c0,.79.03,1.58,0,2.36h-4.49c-2.75,0-3.43.58-3.42-2.45v-10.78c0-.85.34-1.67.95-2.27,3.06-3.02,6.36-6.03,9.52-8.93.44-.4.9-.91,1.4-1.23.34.46.83.87,1.26,1.25,2.4,2.18,4.76,4.43,7.08,6.69.71.69,1.51,1.44,2.25,2.18.59.59.93,1.4.94,2.24h0s0,2.58,0,2.58c0,3.11.04,6.22,0,9.32ZM31.91,19.45c-.56-.42-1.05-.95-1.55-1.43l-12.75-12.11-.25-.26c-.9.67-1.71,1.55-2.53,2.32l-10.54,9.88c-.47.44-1.34,1.45-1.95,1.64-.64.2-1.32-.31-1.5-.91-.3-1.06,2.28-3.03,3.06-3.76L13.48,5.8c.83-.79,2.5-2.72,3.59-2.99,1.29-.06,2.12,1.21,2.98,2,2.09,1.91,4.14,3.88,6.21,5.81l4.84,4.52c.76.71,1.67,1.45,2.37,2.2,1.25,1.37-.59,2.83-1.55,2.1Z"/></svg>