<?xml version="1.0" encoding="UTF-8"?><svg id="Layer_1" xmlns="http://www.w3.org/2000/svg" viewBox="0 0 35.04 35.04"><defs><style>.cls-1{fill:#2c1f14;}</style></defs><path class="cls-1" d="M22.41,10.23h-.04c.02.19.03.38.03.58,0-.11.03-.22.03-.34,0-.08-.02-.16-.02-.24Z"/><path class="cls-1" d="M24.64,7.44c-.15-3.78-3.21-6.81-7.03-6.84-3.93-.03-7.14,3.13-7.17,7.06-.03,3.93,3.13,7.14,7.06,7.17,1.46.01,2.81-.42,3.94-1.16l3.92,3.92,1.84-1.81-3.89-3.89c.76-1.04,1.22-2.3,1.32-3.67,0,0,0,.01,0,.02,0,.22-.62.44-.64.66h4.84v21.49c0,1.52-1.23,2.75-2.75,2.75h-.89c-.42-.58-.67-1.29-.67-2.06,0-.89.33-1.7.88-2.32H6.86V8.9h3.45c-.02-.22-.03-.44-.03-.66,0-.27.02-.53.05-.8h-4.92v21.32h-3.3c-.54.62-.88,1.43-.88,2.32,0,1.94,1.57,3.52,3.52,3.52h21.46c2.26-.07,4.09-1.93,4.09-4.21V7.44h-5.65ZM17.62,12.72c-2.76-.02-4.98-2.28-4.96-5.04.02-2.76,2.28-4.99,5.04-4.96,2.76.02,4.99,2.28,4.96,5.04-.02,2.76-2.28,4.98-5.04,4.96Z"/></svg>